<svg xmlns="http://www.w3.org/2000/svg" width="40" height="40" fill="none" viewBox="0 0 40 40">
  <path stroke="#fff" stroke-linecap="round" stroke-linejoin="round" stroke-width="3.5" d="M13.36 16.4H6.069a4.19 4.19 0 0 0-2.863 1.08 3.65 3.65 0 0 0-1.205 2.654v14.133c.02 2.078 1.84 3.749 4.068 3.731h7.293a4.19 4.19 0 0 0 2.862-1.08 3.646 3.646 0 0 0 1.206-2.654v-14.13a3.651 3.651 0 0 0-1.206-2.653 4.191 4.191 0 0 0-2.862-1.081Zm0-14.399H6.069C3.886 1.945 2.066 3.548 2 5.584v2.434c.066 2.036 1.886 3.64 4.068 3.583h7.293c2.182.056 4.002-1.547 4.068-3.583V5.584c-.066-2.036-1.886-3.639-4.068-3.583ZM26.64 23.6h7.29a4.19 4.19 0 0 0 2.864-1.08A3.648 3.648 0 0 0 38 19.866V5.736c-.009-.999-.442-1.953-1.205-2.654a4.19 4.19 0 0 0-2.863-1.08h-7.293a4.19 4.19 0 0 0-2.862 1.08 3.646 3.646 0 0 0-1.206 2.654v14.13a3.646 3.646 0 0 0 1.206 2.653c.763.7 1.793 1.09 2.862 1.08Zm0 14.398h7.29c2.183.058 4.004-1.545 4.07-3.582v-2.434c-.066-2.037-1.886-3.64-4.068-3.583h-7.293c-2.182-.056-4.002 1.546-4.068 3.583v2.431c.065 2.038 1.885 3.642 4.068 3.586Z" clip-rule="evenodd" opacity=".75"/>
</svg>
