<svg xmlns="http://www.w3.org/2000/svg" width="36" height="36" fill="none" viewBox="0 0 36 36">
  <g opacity=".75">
    <path fill="#fff" d="M9 4c-2.982 0-5.4 2.686-5.4 6v16c0 3.314 2.418 6 5.4 6h18c2.982 0 5.4-2.686 5.4-6v-7c0-1.105.806-2 1.8-2s1.8.895 1.8 2v7c0 5.523-4.03 10-9 10H9c-4.97 0-9-4.477-9-10V10C0 4.477 4.03 0 9 0h6.3c.994 0 1.8.895 1.8 2s-.806 2-1.8 2H9Z"/>
    <path fill="#fff" fill-rule="evenodd" d="M30.318 1.172c-1.406-1.563-3.686-1.563-5.091 0L17.425 9.84l-1.198 8.051c-.222 1.488.94 2.777 2.279 2.529l7.236-1.341 7.8-8.667c1.406-1.562 1.406-4.095 0-5.657l-3.224-3.583ZM20.148 16.06l.64-4.3L27.772 4l3.225 3.583-6.985 7.761-3.864.716Z" clip-rule="evenodd"/>
  </g>
</svg>
