<svg xmlns="http://www.w3.org/2000/svg" width="50" height="50" fill="none" viewBox="0 0 50 50">
  <g clip-path="url(#a)">
    <path fill="#161616" d="M48.342 46.013c-.017 0-.036 0-.053-.002-.79-.027-1.289-.64-1.356-1.427-.053-.58-1.658-14.604-23.547-14.589v8.967a1.561 1.561 0 0 1-2.555 1.207L.57 23.383a1.555 1.555 0 0 1-.57-1.21c.001-.467.212-.912.574-1.209l20.261-16.63a1.57 1.57 0 0 1 1.658-.2c.544.26.894.81.894 1.411v8.772c9.08.288 16.162 3.208 20.72 8.544 7.419 8.681 5.763 21.297 5.686 21.822-.115.764-.676 1.326-1.448 1.326l-.002.004ZM21.824 26.847h.003c15.635.01 21.61 5.289 25.021 9.951-.5-3.734-1.956-8.239-5.128-11.915-4.215-4.888-11.008-7.464-19.898-7.464a1.561 1.561 0 0 1-1.563-1.563v-7.02L4.027 22.184l16.232 13.472v-7.245a1.565 1.565 0 0 1 1.564-1.564Z"/>
  </g>
  <defs>
    <clipPath id="a">
      <path fill="#fff" d="M0 0h50v50H0z"/>
    </clipPath>
  </defs>
</svg>
