<?xml version="1.0" encoding="UTF-8" ?>
<!DOCTYPE svg PUBLIC "-//W3C//DTD SVG 1.1//EN" "http://www.w3.org/Graphics/SVG/1.1/DTD/svg11.dtd">
<svg width="300pt" height="374pt" viewBox="0 0 300 374" version="1.1" xmlns="http://www.w3.org/2000/svg">
<g id="#f3b082ff">
<path fill="#f3b082" opacity="1.00" d=" M 73.35 0.00 L 74.01 0.00 C 83.68 9.72 92.10 20.59 100.97 31.02 C 130.08 64.95 160.08 98.14 188.17 132.92 C 183.89 135.79 179.90 139.20 177.04 143.52 C 168.38 138.59 162.48 130.36 155.14 123.84 C 148.11 117.54 140.50 111.88 133.90 105.10 C 125.82 96.80 116.47 89.88 108.09 81.89 C 96.75 70.52 83.88 60.82 72.29 49.71 C 63.82 41.81 56.11 32.86 46.06 26.88 C 45.44 25.87 44.83 24.86 44.26 23.83 C 43.96 21.72 45.99 20.53 47.35 19.34 C 56.04 12.92 64.95 6.80 73.35 0.00 Z" />
<path fill="#f3b082" opacity="1.00" d=" M 83.88 125.46 C 90.34 121.94 95.22 116.12 102.01 113.11 C 120.03 134.54 137.80 156.19 155.52 177.87 C 154.63 178.55 153.73 179.21 152.83 179.87 C 150.82 181.14 148.64 182.11 146.46 183.05 C 144.20 178.60 139.75 176.06 136.19 172.80 C 122.59 160.71 108.97 148.65 95.14 136.83 C 92.55 134.56 89.69 132.62 86.75 130.83 C 85.70 129.09 84.68 127.33 83.88 125.46 Z" />
</g>
<g id="#2e5496ff">
<path fill="#2e5496" opacity="1.00" d=" M 190.77 11.17 C 190.96 11.46 191.34 12.04 191.54 12.33 C 189.89 17.99 188.21 24.05 190.08 29.89 C 193.68 43.49 204.43 53.36 214.27 62.73 C 223.86 71.77 233.71 81.95 236.87 95.17 C 239.36 106.09 234.18 116.62 228.89 125.83 C 225.05 132.30 222.00 139.27 217.27 145.18 C 217.57 138.75 218.71 132.00 216.14 125.86 C 211.54 114.09 201.37 106.02 193.09 96.93 C 184.81 89.11 176.91 80.56 171.78 70.29 C 168.43 63.84 168.54 55.98 171.24 49.32 C 174.58 40.75 179.19 32.74 183.76 24.77 C 186.24 20.31 189.89 16.36 190.77 11.17 Z" />
</g>
<g id="#db4402ff">
<path fill="#db4402" opacity="1.00" d=" M 44.26 23.83 C 44.83 24.86 45.44 25.87 46.06 26.88 C 57.48 55.30 67.90 84.11 79.62 112.41 C 81.44 116.62 82.61 121.06 83.88 125.46 C 84.68 127.33 85.70 129.09 86.75 130.83 C 88.45 135.83 90.19 140.83 92.20 145.72 C 108.61 188.00 125.06 230.27 141.42 272.57 C 144.35 279.48 146.49 286.73 149.98 293.40 C 150.65 281.59 149.44 269.78 148.94 257.99 C 148.00 245.37 148.84 232.70 147.78 220.09 C 147.26 207.74 146.02 195.41 146.46 183.05 C 148.64 182.11 150.82 181.14 152.83 179.87 C 153.48 180.07 154.79 180.48 155.44 180.68 C 155.57 196.54 158.85 212.13 159.59 227.95 C 159.83 233.35 160.21 238.75 160.62 244.15 C 163.22 233.17 164.50 221.94 166.54 210.85 C 170.49 188.48 172.52 165.79 177.04 143.52 C 179.90 139.20 183.89 135.79 188.17 132.92 C 188.36 138.70 186.90 144.35 186.27 150.05 C 182.42 181.56 178.60 213.06 174.73 244.57 C 172.07 263.31 170.50 282.18 167.73 300.91 C 162.57 302.11 157.37 303.07 152.09 303.49 C 145.45 295.07 135.91 289.85 127.41 283.59 C 107.69 268.94 87.84 254.46 68.03 239.94 C 61.42 235.23 55.29 229.85 48.28 225.72 C 48.09 158.40 44.09 91.15 44.26 23.83 Z" />
</g>
<g id="#203763ff">
<path fill="#203763" opacity="1.00" d=" M 228.37 158.51 C 232.52 157.60 237.49 158.17 240.46 161.51 C 243.67 165.03 242.78 171.25 238.64 173.66 C 233.32 177.52 223.28 176.95 221.30 169.67 C 219.59 164.63 223.36 159.41 228.37 158.51 Z" />
<path fill="#203763" opacity="1.00" d=" M 215.59 207.72 C 219.67 206.44 223.99 206.62 228.21 206.75 C 230.29 212.40 227.54 218.03 225.08 223.05 C 216.77 239.90 206.67 255.77 196.60 271.60 C 193.86 276.15 190.60 280.81 190.60 286.36 C 196.66 285.58 201.60 281.78 206.55 278.53 C 210.53 275.92 213.54 272.20 216.60 268.63 C 218.24 266.10 221.52 267.16 224.04 266.95 C 217.06 277.46 207.78 286.88 196.17 292.14 C 191.75 294.20 186.92 295.91 181.97 295.41 C 179.92 295.22 177.67 294.02 177.20 291.86 C 176.16 286.80 178.14 281.77 180.20 277.24 C 184.68 267.69 190.59 258.93 195.85 249.81 C 200.66 241.40 206.53 233.62 211.05 225.03 C 212.44 222.28 213.89 219.39 213.87 216.23 C 212.71 214.59 210.65 215.61 209.14 216.08 C 202.85 218.67 198.08 223.68 192.75 227.71 C 190.73 229.30 188.09 229.50 185.65 229.89 C 187.87 224.94 192.37 221.71 196.54 218.50 C 202.37 214.11 208.54 209.89 215.59 207.72 Z" />
</g>
<g id="#000000ff">
<path fill="#000000" opacity="1.00" d=" M 123.35 328.34 C 129.04 326.07 135.81 325.96 141.42 328.52 C 143.75 329.31 143.83 331.98 144.47 333.98 C 138.52 332.26 132.01 328.60 125.89 331.80 C 121.30 333.64 122.57 339.85 125.08 342.95 C 130.13 348.64 139.07 348.17 144.15 353.87 C 147.33 357.24 148.13 362.72 145.67 366.72 C 143.42 370.38 139.39 372.36 135.59 374.00 L 124.39 374.00 C 120.18 373.14 116.50 370.59 115.38 366.28 C 121.75 367.91 128.11 371.19 134.85 369.98 C 141.44 368.98 143.61 358.61 137.77 355.26 C 131.33 351.02 122.62 349.76 118.10 342.97 C 114.71 337.78 117.86 330.53 123.35 328.34 Z" />
<path fill="#000000" opacity="1.00" d=" M 83.77 327.69 C 92.60 327.61 101.42 327.54 110.25 327.73 C 110.24 328.59 110.23 330.32 110.23 331.18 C 103.23 331.39 96.24 331.30 89.24 331.25 C 89.21 337.12 89.21 342.99 89.23 348.86 C 95.99 348.98 102.75 348.75 109.49 349.18 C 109.05 350.38 109.06 352.03 107.58 352.48 C 101.47 353.16 95.31 352.33 89.19 352.82 C 89.22 359.64 89.33 366.47 89.09 373.29 C 86.99 372.96 83.28 374.02 83.13 370.86 C 82.47 364.26 83.06 357.61 82.89 351.00 C 83.08 343.23 82.21 335.37 83.77 327.69 Z" />
<path fill="#000000" opacity="1.00" d=" M 158.15 328.15 C 167.06 326.95 176.15 327.85 185.13 327.74 C 185.14 328.61 185.15 330.34 185.16 331.20 C 177.74 331.39 170.32 331.30 162.90 331.24 C 162.55 336.55 162.59 341.87 162.82 347.18 C 169.19 347.39 175.57 347.30 181.94 347.27 C 181.95 348.43 181.95 349.60 181.96 350.77 C 175.58 350.80 169.21 350.70 162.83 350.88 C 162.58 357.15 162.49 363.43 162.98 369.70 C 170.75 369.70 178.57 369.18 186.32 370.09 C 185.83 371.06 185.29 372.01 184.70 372.93 C 180.16 373.58 175.55 373.22 170.98 373.39 C 167.09 373.37 163.10 373.82 159.31 372.81 C 157.37 372.03 157.80 369.70 157.59 368.05 C 157.56 357.70 157.71 347.35 157.57 337.00 C 157.55 334.04 157.42 331.04 158.15 328.15 Z" />
<path fill="#000000" opacity="1.00" d=" M 197.28 327.80 C 198.81 327.71 200.34 327.66 201.87 327.81 C 203.92 328.14 203.48 330.47 203.68 331.98 C 203.68 342.98 203.55 353.99 203.70 365.00 C 203.70 367.45 203.76 369.93 203.32 372.36 C 201.46 373.30 199.30 373.05 197.28 373.12 C 197.42 358.01 197.43 342.91 197.28 327.80 Z" />
</g>
</svg>
