<svg width="316" height="316" viewBox="0 0 316 316" fill="none" xmlns="http://www.w3.org/2000/svg">
<circle cx="158" cy="158" r="158" fill="url(#paint0_linear_52_1227)"/>
<circle cx="158" cy="158" r="125" fill="white" fill-opacity="0.1"/>
<circle cx="158" cy="158" r="124" stroke="white" stroke-opacity="0.15" stroke-width="2"/>
<g clip-path="url(#clip0_52_1227)">
<path d="M232.609 240.1C229.037 237.06 226.867 232.258 227.436 227.583C228.005 222.908 231.53 218.61 236.101 217.618C240.672 216.625 245.883 219.373 247.272 223.871C248.036 215.199 248.916 206.165 253.494 198.781C257.638 192.094 264.817 187.31 272.597 186.454C280.377 185.598 288.568 188.831 293.42 195.016C298.272 201.2 299.46 210.192 296.062 217.292C293.558 222.523 288.946 226.415 284.114 229.582C268.499 239.73 249.771 243.856 231.375 241.203L232.609 240.1Z" fill="#F2F2F2"/>
<path d="M285.727 189.01C279.307 194.276 273.418 200.166 268.144 206.595C259.891 216.62 253.212 227.861 248.341 239.925C247.984 240.805 249.403 241.189 249.756 240.318C257.726 220.711 270.45 203.43 286.764 190.055C287.497 189.454 286.453 188.414 285.727 189.01Z" fill="white"/>
<path d="M108.815 239.274C113.721 235.099 116.701 228.503 115.919 222.082C115.138 215.661 110.297 209.758 104.019 208.395C97.7398 207.031 90.5824 210.805 88.6754 216.983C87.6258 205.073 86.4164 192.664 80.1295 182.522C74.4369 173.338 64.5772 166.767 53.8914 165.592C43.2057 164.416 31.955 168.856 25.2907 177.351C18.6264 185.845 16.9946 198.195 21.6621 207.947C25.1005 215.132 31.4353 220.478 38.0725 224.828C59.2475 238.706 85.515 244.493 110.509 240.789" fill="#F2F2F2"/>
<path d="M35.8576 169.102C44.6747 176.335 52.7634 184.425 60.0068 193.254C67.2513 202.074 73.6294 211.582 79.0513 221.642C82.0819 227.286 84.8044 233.092 87.2066 239.034C87.6963 240.243 85.7474 240.769 85.2631 239.574C81.0082 229.097 75.7442 219.066 69.5464 209.624C63.3787 200.216 56.3195 191.432 48.4679 183.397C44.027 178.855 39.3414 174.562 34.4325 170.538C33.4263 169.712 34.8597 168.284 35.8576 169.102Z" fill="white"/>
<path d="M219.271 241.632H102.219V120.672C102.219 94.937 123.007 74 148.559 74H172.931C198.483 74 219.271 94.937 219.271 120.672V241.632Z" fill="#F2F2F2"/>
<path d="M194.898 241.632H102.219V120.672C102.193 110.811 105.294 101.199 111.069 93.2359C111.281 92.9437 111.494 92.6552 111.713 92.3699C114.506 88.6801 117.83 85.4305 121.575 82.7284C121.787 82.5734 121.999 82.4211 122.215 82.2687C125.349 80.0845 128.739 78.2989 132.308 76.9526C132.52 76.8717 132.735 76.7906 132.951 76.7129C136.179 75.5527 139.525 74.758 142.927 74.3435C143.138 74.3144 143.355 74.2917 143.571 74.269C146.887 73.912 150.231 73.912 153.546 74.269C153.762 74.2917 153.979 74.3144 154.192 74.3438C157.594 74.7584 160.939 75.553 164.166 76.7129C164.382 76.7907 164.598 76.8717 164.81 76.9528C168.335 78.2821 171.685 80.041 174.786 82.1903C175.001 82.3394 175.217 82.4917 175.429 82.6441C177.528 84.1533 179.5 85.8347 181.325 87.6711C182.787 89.1441 184.151 90.7142 185.405 92.3709C185.623 92.6552 185.836 92.9437 186.048 93.2354C191.823 101.199 194.924 110.811 194.898 120.672V241.632Z" fill="#CCCCCC"/>
<path d="M187.362 187.531C190.196 187.531 192.493 185.218 192.493 182.363C192.493 179.509 190.196 177.196 187.362 177.196C184.528 177.196 182.231 179.509 182.231 182.363C182.231 185.218 184.528 187.531 187.362 187.531Z" fill="#FC6F1F"/>
<path d="M209.682 238.009H205.75L203.88 222.736L209.682 222.736L209.682 238.009Z" fill="#FFB8B8"/>
<path d="M202.942 236.878H210.524V241.686H198.168C198.168 241.055 198.291 240.429 198.531 239.846C198.771 239.263 199.123 238.733 199.566 238.286C200.009 237.84 200.536 237.485 201.115 237.244C201.694 237.002 202.315 236.878 202.942 236.878Z" fill="#2F2E41"/>
<path d="M229.244 238.009H225.312L223.442 222.736L229.245 222.736L229.244 238.009Z" fill="#FFB8B8"/>
<path d="M222.504 236.878H230.086V241.686H217.73C217.73 241.055 217.853 240.429 218.093 239.846C218.333 239.263 218.685 238.733 219.128 238.286C219.571 237.84 220.098 237.485 220.677 237.244C221.256 237.002 221.877 236.878 222.504 236.878Z" fill="#2F2E41"/>
<path d="M189.959 183.387C189.676 182.968 189.488 182.49 189.408 181.99C189.328 181.489 189.358 180.976 189.496 180.489C189.634 180.001 189.876 179.549 190.206 179.166C190.536 178.783 190.945 178.477 191.405 178.27L204.77 141.169L211.347 144.784L196.087 180.239C196.381 181.04 196.372 181.922 196.063 182.717C195.754 183.513 195.167 184.166 194.411 184.554C193.656 184.942 192.786 185.038 191.965 184.823C191.144 184.608 190.431 184.097 189.959 183.387Z" fill="#FFB8B8"/>
<path d="M227.235 190.359C226.799 190.106 226.422 189.761 226.132 189.346C225.842 188.931 225.646 188.457 225.557 187.958C225.469 187.458 225.49 186.946 225.62 186.455C225.75 185.965 225.984 185.51 226.308 185.121L222.167 145.874L229.652 146.219L231.372 184.823C231.985 185.413 232.361 186.209 232.43 187.061C232.499 187.912 232.255 188.759 231.745 189.441C231.235 190.124 230.495 190.594 229.663 190.763C228.832 190.932 227.968 190.788 227.235 190.359Z" fill="#FFB8B8"/>
<path d="M215.296 134.297C219.646 134.297 223.172 130.745 223.172 126.364C223.172 121.983 219.646 118.431 215.296 118.431C210.946 118.431 207.42 121.983 207.42 126.364C207.42 130.745 210.946 134.297 215.296 134.297Z" fill="#FFB8B8"/>
<path d="M227.185 181.433H203.439L203.468 181.247C203.51 180.968 207.7 153.328 204.61 144.285C204.3 143.396 204.327 142.424 204.686 141.554C205.046 140.684 205.712 139.979 206.556 139.575C210.973 137.48 219.45 134.901 226.606 141.16C227.659 142.096 228.481 143.267 229.008 144.578C229.534 145.89 229.75 147.307 229.639 148.717L227.185 181.433Z" fill="#FC6F1F"/>
<path d="M208 157.413L197.309 155.228L202.32 143.268C202.62 142.109 203.364 141.118 204.389 140.511C205.413 139.904 206.635 139.732 207.786 140.031C208.937 140.33 209.923 141.077 210.528 142.107C211.133 143.138 211.307 144.368 211.013 145.528L208 157.413Z" fill="#FC6F1F"/>
<path d="M221.692 161.469L221.049 146.63C220.562 143.841 222.147 141.204 224.586 140.773C227.025 140.343 229.406 142.278 229.896 145.088L232.312 158.953L221.692 161.469Z" fill="#FC6F1F"/>
<path d="M226.395 179.656C230.216 194.313 230.633 212.947 229.602 233.273L224.471 232.627L215.171 193.868L210.04 233.273L204.268 232.95C202.543 211.623 200.864 193.314 203.626 181.271L226.395 179.656Z" fill="#2F2E41"/>
<path d="M220.486 132.495C219.016 134.071 216.288 133.225 216.096 131.071C216.081 130.904 216.082 130.736 216.099 130.569C216.198 129.615 216.745 128.749 216.614 127.742C216.585 127.491 216.492 127.252 216.345 127.048C215.174 125.468 212.425 127.754 211.32 126.324C210.643 125.448 211.439 124.067 210.919 123.088C210.233 121.795 208.2 122.432 206.925 121.724C205.507 120.936 205.592 118.745 206.526 117.412C207.664 115.786 209.66 114.918 211.632 114.793C213.603 114.668 215.561 115.205 217.402 115.927C219.493 116.748 221.567 117.883 222.854 119.735C224.419 121.987 224.569 125.015 223.787 127.648C223.311 129.25 221.686 131.208 220.486 132.495Z" fill="#2F2E41"/>
<path d="M169.403 206.588H127.714C127.165 206.591 126.637 206.374 126.246 205.986C125.855 205.597 125.634 205.069 125.629 204.516V110.794C125.634 110.241 125.855 109.712 126.246 109.323C126.637 108.935 127.165 108.718 127.714 108.721H169.403C169.952 108.718 170.48 108.935 170.871 109.323C171.262 109.712 171.484 110.241 171.488 110.794V204.516C171.484 205.069 171.262 205.597 170.871 205.986C170.48 206.374 169.952 206.591 169.403 206.588Z" fill="white"/>
<path d="M171.488 139.047H125.629V139.693H171.488V139.047Z" fill="#CCCCCC"/>
<path d="M171.648 175.904H125.79V176.55H171.648V175.904Z" fill="#CCCCCC"/>
<path d="M140.702 108.722H140.06V206.911H140.702V108.722Z" fill="#CCCCCC"/>
<path d="M156.736 108.722H156.095V206.911H156.736V108.722Z" fill="#CCCCCC"/>
</g>
<defs>
<linearGradient id="paint0_linear_52_1227" x1="158" y1="0" x2="158" y2="158" gradientUnits="userSpaceOnUse">
<stop stop-color="white" stop-opacity="0.25"/>
<stop offset="1" stop-color="white" stop-opacity="0"/>
</linearGradient>
<clipPath id="clip0_52_1227">
<rect width="279" height="168" fill="white" transform="translate(19 74)"/>
</clipPath>
</defs>
</svg>
