<?xml version="1.0" encoding="UTF-8" ?>
<!DOCTYPE svg PUBLIC "-//W3C//DTD SVG 1.1//EN" "http://www.w3.org/Graphics/SVG/1.1/DTD/svg11.dtd">
<svg width="1024pt" height="992pt" viewBox="0 0 1024 992" version="1.1" xmlns="http://www.w3.org/2000/svg">
<g id="#ffffffff">
<path fill="#ffffff" opacity="1.00" d=" M 520.45 398.43 C 525.00 396.86 527.49 403.29 525.76 406.71 C 524.86 410.43 519.02 410.88 517.55 407.39 C 516.78 404.29 516.76 399.57 520.45 398.43 Z" />
<path fill="#ffffff" opacity="1.00" d=" M 508.50 399.34 C 513.39 395.68 517.07 403.77 514.67 407.55 C 513.25 411.08 506.69 410.68 506.36 406.61 C 505.99 404.08 506.14 400.89 508.50 399.34 Z" />
<path fill="#ffffff" opacity="1.00" d=" M 531.43 402.30 C 535.16 402.24 538.90 402.19 542.65 402.15 C 542.55 411.91 543.31 421.65 543.85 431.38 C 545.94 441.25 546.31 452.08 552.52 460.50 C 557.82 466.24 564.24 471.52 572.05 473.24 C 578.46 473.94 585.07 473.47 591.12 471.12 C 596.35 469.55 600.50 465.89 605.09 463.11 C 607.30 461.74 609.34 460.12 611.32 458.44 C 605.46 456.96 599.34 454.29 596.64 448.48 C 595.95 444.01 596.13 439.20 598.04 435.03 C 600.05 430.10 604.34 426.68 608.05 423.06 C 614.15 417.49 622.52 415.97 630.33 414.40 C 629.82 418.26 631.64 423.47 628.24 426.32 C 622.33 428.97 615.99 430.58 610.03 433.12 C 607.53 434.33 604.27 436.34 605.17 439.63 C 608.06 443.25 612.47 445.31 617.00 445.96 C 623.33 447.68 629.66 444.38 634.42 440.44 C 639.71 435.73 645.19 431.21 649.95 425.95 C 653.66 421.82 657.66 417.91 662.20 414.70 C 662.11 419.12 661.84 423.54 661.53 427.95 C 661.58 430.22 659.78 431.82 658.21 433.19 C 650.18 439.85 642.30 446.76 633.58 452.55 C 631.59 453.88 629.50 455.09 627.76 456.74 C 626.59 461.57 627.17 466.69 627.53 471.60 C 628.21 475.17 629.16 479.88 633.19 481.03 C 635.62 482.04 637.60 479.61 638.84 477.85 C 643.97 469.77 647.52 460.79 652.82 452.81 C 655.57 448.67 657.75 443.87 662.05 441.07 C 665.37 438.91 669.27 436.25 673.41 437.69 C 679.01 440.46 683.96 445.23 685.59 451.42 C 688.01 461.14 688.10 471.40 686.19 481.22 C 685.73 483.08 684.80 485.31 682.67 485.68 C 678.89 486.56 674.49 486.90 670.98 485.02 C 667.90 481.36 666.68 476.59 664.51 472.41 C 662.47 468.52 661.40 464.22 661.37 459.83 C 663.81 458.41 666.43 456.34 669.43 457.46 C 670.64 462.37 671.71 467.37 674.15 471.87 C 674.71 473.82 677.04 473.75 678.61 474.44 C 678.93 466.52 679.15 457.10 672.47 451.51 C 669.67 448.73 665.86 451.55 663.57 453.56 C 657.67 459.61 656.30 468.34 652.74 475.72 C 650.68 479.96 647.95 484.60 643.22 486.17 C 636.13 488.83 628.15 485.99 622.38 481.63 C 617.41 478.02 616.38 471.54 615.82 465.85 C 611.91 468.96 608.20 472.36 603.82 474.82 C 596.92 478.70 590.04 483.10 582.07 484.33 C 575.20 485.94 568.07 485.24 561.23 483.86 C 558.09 483.04 554.78 481.95 552.58 479.45 C 548.34 474.72 543.88 470.13 540.46 464.75 C 539.24 469.14 538.87 474.92 534.34 477.30 C 529.50 479.44 523.31 479.36 519.03 475.97 C 513.99 472.23 512.07 465.84 510.73 459.99 C 510.10 454.34 510.92 448.65 511.17 443.00 C 511.50 437.85 511.01 432.53 512.74 427.57 C 514.07 424.83 517.19 423.59 520.07 423.39 C 523.89 423.14 527.72 423.43 531.55 423.51 C 531.56 416.44 531.48 409.37 531.43 402.30 M 522.51 430.56 C 520.25 441.47 518.85 453.25 523.07 463.88 C 523.91 466.68 525.46 469.40 528.51 470.15 C 529.59 466.41 530.27 462.36 529.23 458.54 C 528.48 455.71 525.84 453.17 526.62 450.12 C 528.47 447.86 531.70 448.94 534.23 448.51 C 534.62 446.44 535.47 444.32 534.95 442.22 C 534.49 438.27 529.52 440.05 526.86 439.49 C 526.76 436.35 526.31 433.23 525.25 430.26 C 524.56 430.34 523.20 430.48 522.51 430.56 Z" />
<path fill="#ffffff" opacity="1.00" d=" M 687.72 403.39 C 688.15 403.36 689.02 403.30 689.46 403.27 C 692.40 424.22 696.60 445.25 705.38 464.63 C 706.92 467.70 708.97 470.75 712.10 472.38 C 714.12 472.79 716.53 472.72 717.89 470.89 C 720.79 467.29 723.13 463.25 725.48 459.26 C 717.65 452.12 709.73 445.07 701.33 438.60 C 701.31 432.33 701.65 425.94 704.01 420.05 C 714.66 429.40 722.85 441.20 733.91 450.12 C 741.42 457.06 750.65 461.66 758.90 467.60 C 756.72 470.08 754.91 473.13 751.89 474.67 C 744.45 472.87 739.07 466.57 731.68 464.62 C 729.45 471.58 725.42 478.20 718.84 481.80 C 714.58 484.60 708.95 483.79 704.83 481.15 C 699.53 478.40 698.48 471.98 695.90 467.13 C 689.32 453.70 683.66 439.68 680.61 425.01 C 682.48 417.66 685.63 410.69 687.72 403.39 Z" />
<path fill="#ffffff" opacity="1.00" d=" M 735.46 472.44 C 740.33 470.85 741.61 477.14 740.60 480.62 C 740.00 484.31 734.98 484.57 732.73 482.25 C 731.70 478.95 731.44 473.75 735.46 472.44 Z" />
<path fill="#ffffff" opacity="1.00" d=" M 498.58 489.44 C 500.36 487.96 503.70 488.04 504.65 490.45 C 506.09 493.44 506.26 498.39 502.61 499.85 C 500.53 501.10 498.22 499.27 496.75 497.86 C 496.22 495.02 496.10 491.44 498.58 489.44 Z" />
<path fill="#ffffff" opacity="1.00" d=" M 634.33 503.29 C 639.00 502.60 640.51 509.30 638.61 512.54 C 637.03 516.37 630.16 515.13 630.28 510.89 C 629.71 507.78 630.91 504.03 634.33 503.29 Z" />
<path fill="#ffffff" opacity="1.00" d=" M 614.44 504.39 C 621.69 501.51 622.93 515.52 615.99 515.62 C 610.14 515.83 609.85 506.35 614.44 504.39 Z" />
<path fill="#ffffff" opacity="1.00" d=" M 564.97 508.91 C 566.28 507.04 568.83 507.54 570.78 507.20 C 572.53 510.56 574.19 515.88 570.40 518.47 C 568.88 518.86 567.25 518.82 565.77 518.36 C 562.78 516.26 563.11 511.65 564.97 508.91 Z" />
<path fill="#ffffff" opacity="1.00" d=" M 527.82 527.74 C 531.15 521.37 533.77 514.59 537.83 508.63 C 539.17 518.70 537.80 528.90 538.97 538.99 C 540.39 553.82 540.50 569.34 546.91 583.09 C 549.57 589.23 557.15 594.16 563.66 590.60 C 569.74 586.57 574.44 580.80 580.35 576.52 C 574.58 576.54 566.83 577.49 563.63 571.41 C 562.02 566.27 562.34 560.46 564.63 555.57 C 567.93 547.24 574.07 540.52 579.75 533.76 C 581.31 531.63 583.87 530.92 586.30 530.29 C 586.48 534.50 586.76 538.74 586.32 542.95 C 580.26 547.92 573.60 552.61 569.47 559.44 C 568.36 561.69 571.24 563.13 572.61 564.43 C 575.56 567.04 579.79 566.96 583.43 566.16 C 587.92 565.04 592.41 563.09 595.52 559.54 C 605.90 547.59 613.72 533.75 622.80 520.84 C 623.73 519.05 625.70 518.63 627.49 518.17 C 627.10 523.91 628.93 530.87 624.40 535.40 C 616.54 544.61 608.91 554.02 601.74 563.77 C 599.30 566.66 601.81 570.16 602.91 573.06 C 605.91 580.67 610.49 587.48 614.52 594.54 C 617.23 595.50 619.28 592.77 619.66 590.37 C 622.99 576.42 617.94 562.53 616.93 548.64 C 620.53 548.56 624.13 548.57 627.74 548.60 C 627.72 554.40 628.03 560.21 628.66 565.99 C 629.75 574.98 632.72 583.62 633.92 592.60 C 634.67 592.47 636.18 592.23 636.93 592.11 C 641.38 583.59 642.66 573.89 643.58 564.45 C 646.34 564.36 649.10 564.28 651.87 564.20 C 652.31 573.97 650.72 584.15 653.90 593.58 C 656.55 594.54 657.06 591.59 657.79 589.77 C 659.11 585.52 660.64 581.30 661.34 576.89 C 661.68 572.69 661.89 568.47 662.35 564.27 C 664.50 564.26 666.66 564.23 668.83 564.21 C 668.65 574.05 668.49 583.93 670.21 593.66 C 670.85 593.61 672.13 593.52 672.76 593.48 C 674.80 583.64 675.91 573.67 677.18 563.73 C 680.22 563.49 683.28 563.49 686.34 563.56 C 686.43 567.04 686.59 570.52 686.61 574.01 C 686.86 580.75 682.64 586.85 683.75 593.68 C 685.08 592.70 686.94 592.07 687.46 590.33 C 690.30 582.63 692.17 574.10 697.94 567.94 C 700.84 564.53 705.59 563.11 709.95 563.76 C 716.33 565.18 721.32 571.40 721.32 577.94 C 721.50 583.87 721.07 589.87 719.49 595.61 C 718.62 601.76 710.85 602.81 706.54 599.50 C 703.31 596.82 700.69 593.11 699.78 588.98 C 699.15 584.90 701.53 579.56 706.13 579.26 C 707.62 582.94 708.05 586.99 709.67 590.66 C 710.40 590.45 711.84 590.03 712.56 589.82 C 712.57 586.02 712.86 582.18 712.35 578.41 C 711.93 575.26 708.33 572.30 705.21 573.87 C 700.62 575.85 698.73 580.94 697.39 585.38 C 695.87 590.24 695.81 596.05 691.74 599.68 C 689.51 601.79 685.63 603.32 682.98 601.13 C 682.07 599.70 681.44 598.13 680.71 596.63 C 678.91 598.89 677.73 602.00 674.89 603.14 C 672.63 603.56 670.30 603.59 668.02 603.37 C 665.51 601.42 664.27 598.36 662.34 595.92 C 660.37 598.50 659.11 602.02 655.97 603.41 C 653.55 603.85 650.99 603.39 648.98 601.96 C 647.25 598.95 646.79 595.43 645.56 592.23 C 642.83 594.50 641.64 597.91 639.81 600.84 C 637.90 603.94 633.40 604.15 630.33 602.92 C 628.44 600.95 627.38 598.30 625.27 596.54 C 622.87 599.43 620.95 603.36 616.94 604.26 C 613.94 604.62 610.67 603.69 608.66 601.36 C 604.00 596.41 600.40 590.54 597.56 584.39 C 596.11 581.37 594.92 578.19 592.91 575.49 C 589.11 578.22 587.18 582.67 584.27 586.20 C 579.16 593.25 571.57 597.79 564.29 602.27 C 559.74 605.01 553.61 605.89 548.92 603.03 C 544.28 599.15 541.03 593.84 538.74 588.31 C 535.51 579.69 534.32 570.52 532.28 561.59 C 530.60 552.58 527.19 543.99 525.60 534.97 C 525.06 532.33 526.86 530.05 527.82 527.74 Z" />
<path fill="#ffffff" opacity="1.00" d=" M 506.53 542.51 C 508.50 537.62 511.00 532.95 513.24 528.18 C 517.32 531.44 517.28 537.03 518.48 541.69 C 520.26 551.32 521.45 561.67 518.08 571.07 C 516.44 575.67 510.82 574.79 506.97 574.73 C 504.26 574.77 502.08 573.01 499.96 571.59 C 497.89 573.47 496.00 576.00 493.04 576.38 C 488.39 576.96 483.28 576.50 479.44 573.58 C 475.29 570.21 471.99 565.65 470.81 560.38 C 469.16 555.22 469.55 549.78 469.41 544.45 C 464.01 546.78 459.82 551.67 458.44 557.39 C 456.46 565.09 456.35 573.10 456.24 581.00 C 456.22 589.01 455.96 597.33 459.26 604.82 C 461.56 609.83 462.90 615.38 462.25 620.91 C 460.27 624.76 457.22 627.92 454.03 630.79 C 450.32 618.42 448.55 605.56 446.29 592.87 C 444.38 578.66 444.51 563.37 451.43 550.43 C 457.93 542.10 466.93 534.87 477.70 533.40 C 482.19 532.90 487.28 533.12 490.90 536.18 C 494.13 538.43 495.83 542.10 497.45 545.55 C 500.15 551.61 503.29 557.50 507.14 562.92 C 508.30 564.71 510.40 565.39 512.24 566.27 C 513.19 560.70 511.68 555.04 508.81 550.27 C 507.72 547.83 505.21 545.33 506.53 542.51 M 479.58 554.04 C 480.02 560.51 482.61 567.33 488.23 571.01 C 490.81 564.45 490.15 557.10 488.66 550.37 C 487.74 545.65 484.25 542.11 480.69 539.17 C 479.35 544.01 479.42 549.07 479.58 554.04 Z" />
</g>
<g id="#5cbb47ff">
<path fill="#5cbb47" opacity="1.00" d=" M 746.27 2.31 C 747.45 0.28 750.38 0.96 751.97 2.11 C 755.73 5.02 755.96 10.13 757.61 14.22 C 760.83 12.77 763.07 10.04 764.80 7.04 C 768.12 7.35 770.17 9.96 771.99 12.45 C 774.34 10.37 776.46 7.96 779.11 6.23 C 780.65 6.36 782.17 6.77 783.69 7.11 C 783.51 9.69 783.17 12.27 782.46 14.76 C 779.50 25.42 777.62 36.34 774.99 47.09 C 771.65 59.78 768.20 72.45 764.92 85.16 C 762.17 95.65 760.62 106.42 757.91 116.92 C 755.34 126.53 755.57 136.57 753.80 146.31 C 752.10 155.02 750.27 163.70 748.39 172.38 C 744.21 190.30 743.42 208.76 741.31 226.99 C 740.16 234.94 740.78 242.99 740.49 251.00 C 740.34 258.00 739.81 265.04 740.95 272.00 C 743.51 295.14 746.71 318.22 748.86 341.41 C 749.62 347.26 752.39 352.57 753.83 358.25 C 754.49 360.36 753.45 362.47 753.09 364.54 C 749.40 365.60 746.12 367.56 743.11 369.90 C 740.60 371.95 736.42 372.43 734.04 369.97 C 730.01 365.88 727.18 360.84 723.78 356.26 C 722.11 353.36 718.41 354.48 715.67 354.31 C 713.25 354.56 711.26 352.90 709.05 352.27 C 707.02 352.78 705.30 354.36 703.19 354.47 C 700.58 353.70 698.88 351.41 697.19 349.45 C 695.36 349.47 693.54 349.54 691.72 349.61 C 691.44 352.19 691.45 354.88 690.29 357.27 C 688.19 357.71 686.03 357.57 683.92 357.59 C 681.27 360.03 678.12 363.15 674.17 362.27 C 670.32 359.12 670.58 353.80 669.90 349.33 C 667.76 329.60 666.10 309.82 664.59 290.03 C 664.17 280.92 664.60 271.78 664.07 262.67 C 660.56 265.99 657.35 269.62 654.49 273.50 C 651.64 277.28 651.08 282.30 647.93 285.90 C 645.00 289.68 640.82 294.16 643.02 299.31 C 645.33 305.91 644.53 313.22 641.66 319.51 C 639.18 320.99 636.17 320.47 633.43 320.53 C 631.47 324.57 633.36 329.12 631.95 333.21 C 629.92 336.82 625.99 341.25 621.46 338.85 C 615.17 336.91 613.95 330.01 610.85 325.13 C 609.23 322.13 605.48 324.03 603.04 324.76 C 598.57 326.06 597.35 331.29 593.69 333.59 C 590.14 333.82 588.02 329.99 585.07 328.53 C 582.26 329.54 579.69 332.37 576.49 331.27 C 573.37 330.78 571.92 327.75 570.93 325.12 C 567.70 316.45 565.92 307.35 563.48 298.45 C 557.85 278.12 553.32 257.52 548.44 237.01 C 546.70 228.96 545.67 220.75 543.10 212.89 C 537.79 222.04 535.14 232.31 532.02 242.32 C 529.53 251.98 527.65 261.76 525.96 271.58 C 524.84 276.13 524.94 281.79 520.60 284.69 C 514.84 289.38 507.19 281.82 501.42 286.37 C 497.34 291.11 493.90 297.42 487.54 299.32 C 482.68 301.04 479.84 295.04 475.16 295.31 C 472.94 294.76 472.23 297.35 471.05 298.65 C 467.69 299.06 464.38 298.50 461.92 296.02 C 458.77 299.10 454.39 298.78 450.34 298.44 C 455.23 283.57 459.06 268.38 463.62 253.42 C 470.08 232.95 476.69 212.53 483.36 192.13 C 491.55 168.72 496.68 144.39 503.99 120.72 C 510.97 99.37 517.09 77.76 523.13 56.14 C 525.06 48.27 527.06 40.40 528.39 32.40 C 529.34 27.12 529.43 21.16 533.73 17.29 C 535.23 17.70 536.74 18.11 538.25 18.53 C 539.39 21.92 540.89 25.18 542.85 28.19 C 546.93 25.41 547.96 20.60 549.54 16.27 C 551.19 11.67 556.71 11.03 560.85 10.17 C 562.19 14.06 563.06 18.09 563.62 22.15 C 565.81 21.73 568.26 21.76 570.00 20.14 C 575.51 16.01 581.51 11.29 588.73 11.24 C 591.42 13.32 592.67 16.64 594.36 19.49 C 596.08 19.52 597.80 19.55 599.53 19.60 C 602.83 14.73 605.71 9.00 611.21 6.27 C 613.70 4.72 617.13 5.27 619.35 7.06 C 618.64 18.52 615.29 29.57 613.47 40.87 C 611.45 54.82 609.47 68.86 609.58 82.99 C 609.65 89.68 608.31 96.29 608.45 102.99 C 608.59 110.01 607.03 116.98 607.85 124.01 C 608.89 131.94 608.10 140.05 610.03 147.87 C 612.20 156.90 614.33 165.96 617.02 174.86 C 617.79 177.59 619.67 179.77 621.56 181.81 C 625.93 176.36 630.43 170.98 634.16 165.07 C 637.51 159.73 641.45 154.73 644.05 148.95 C 647.46 141.53 650.69 134.01 654.83 126.95 C 659.45 118.96 662.25 110.13 665.73 101.62 C 673.24 84.24 677.78 65.79 682.91 47.62 C 684.79 41.20 685.99 34.62 687.41 28.10 C 687.94 25.17 689.73 22.76 691.30 20.32 C 693.59 20.36 695.88 20.43 698.18 20.53 C 699.65 26.32 700.48 32.30 702.58 37.93 C 708.34 35.43 709.94 28.40 715.66 25.91 C 717.74 25.33 719.94 25.46 722.10 25.30 C 722.71 29.36 722.51 33.53 723.44 37.54 C 724.69 38.08 725.97 38.55 727.27 38.98 C 727.81 37.26 728.36 35.52 728.87 33.78 C 730.04 33.16 731.23 32.53 732.43 31.92 C 733.08 33.50 733.72 35.10 734.36 36.70 C 736.13 35.08 738.55 33.79 739.13 31.26 C 740.80 25.63 742.33 19.90 742.65 14.00 C 743.26 10.00 743.74 5.64 746.27 2.31 Z" />
</g>
<g id="#f05523ff">
<path fill="#f05523" opacity="1.00" d=" M 350.53 8.45 C 354.85 7.33 356.32 12.68 358.60 15.22 C 361.22 14.06 364.02 13.24 366.89 14.00 C 366.28 20.03 362.61 25.54 363.41 31.73 C 363.49 32.64 363.93 33.33 364.74 33.79 C 367.19 29.13 367.10 23.40 370.06 19.03 C 373.46 16.92 375.36 22.07 377.21 24.05 C 381.33 21.55 378.90 16.44 379.86 12.59 C 381.29 10.15 385.03 8.22 387.32 10.70 C 392.19 14.43 388.44 21.62 391.72 26.11 C 395.64 21.23 398.63 15.56 403.42 11.41 C 405.72 9.40 408.44 6.62 411.81 7.78 C 414.73 9.68 414.92 13.49 413.86 16.50 C 408.01 34.06 400.46 51.05 395.59 68.94 C 393.03 78.36 390.00 87.63 387.07 96.93 C 381.63 112.70 378.82 129.20 374.72 145.34 C 370.22 167.05 363.58 188.25 359.35 210.01 C 356.99 220.27 354.88 230.56 353.62 241.01 C 349.70 261.94 348.52 283.23 345.83 304.33 C 344.62 315.34 343.23 326.33 341.71 337.31 C 341.18 343.86 341.79 350.46 340.94 357.00 C 340.14 367.69 340.91 378.47 339.69 389.14 C 339.24 403.09 338.94 417.10 340.31 431.00 C 340.58 436.66 340.52 442.32 340.54 447.99 C 340.09 461.78 344.02 475.22 344.45 488.96 C 344.44 494.48 346.03 499.81 347.35 505.13 C 353.02 528.59 357.46 552.33 362.53 575.93 C 363.47 580.99 365.01 585.90 366.38 590.86 C 368.30 597.20 368.53 603.97 371.18 610.11 C 372.66 613.46 373.28 617.20 371.83 620.69 C 370.41 620.56 368.98 620.55 367.60 620.24 C 366.18 619.06 365.10 617.55 363.95 616.14 C 359.04 609.55 352.70 603.67 350.45 595.50 C 349.26 595.44 348.07 595.39 346.89 595.34 C 346.23 597.72 345.60 600.10 345.10 602.52 C 342.49 603.14 339.82 603.44 337.17 603.72 C 337.74 606.76 339.52 609.33 340.64 612.17 C 341.47 615.14 338.46 616.53 336.43 617.86 C 336.29 621.86 336.98 626.40 334.14 629.70 C 330.24 629.92 327.69 626.34 324.42 624.80 C 324.09 630.09 327.06 635.46 325.06 640.64 C 322.65 646.12 314.64 643.42 312.92 638.68 C 306.92 620.12 300.48 601.59 296.87 582.37 C 294.71 572.28 292.47 562.22 290.47 552.10 C 288.25 542.50 287.37 532.67 285.66 522.99 C 283.32 506.02 279.99 489.15 279.12 472.02 C 278.59 467.37 278.57 462.68 278.16 458.02 C 276.95 448.58 277.87 439.02 276.64 429.58 C 276.44 418.99 275.34 408.45 274.65 397.89 C 274.42 387.93 274.59 377.95 273.79 368.01 C 273.52 362.96 274.49 357.97 274.60 352.94 C 276.03 335.56 276.81 318.15 277.94 300.76 C 279.64 292.24 279.61 283.55 280.46 274.94 C 281.05 265.04 283.49 255.35 283.74 245.43 C 285.47 229.59 286.98 213.72 289.16 197.93 C 294.47 169.81 300.66 141.84 308.41 114.28 C 313.06 99.23 317.78 84.21 322.37 69.14 C 324.17 63.57 326.72 58.29 328.98 52.91 C 333.07 43.10 337.14 33.30 341.43 23.58 C 343.68 18.15 345.77 12.24 350.53 8.45 Z" />
<path fill="#f05523" opacity="1.00" d=" M 511.39 300.41 C 512.94 298.36 515.64 298.04 517.99 297.56 C 522.95 304.00 519.61 312.15 518.61 319.30 C 517.19 330.06 515.00 340.68 512.58 351.26 C 510.51 363.28 506.95 374.97 503.57 386.67 C 497.20 404.13 492.17 422.01 486.54 439.70 C 476.85 463.21 467.18 486.72 456.88 509.97 C 456.05 512.76 453.34 513.93 450.94 515.10 C 449.14 513.81 447.19 512.63 445.81 510.88 C 445.36 509.34 445.15 507.74 444.85 506.19 C 442.92 507.04 440.51 507.59 439.68 509.78 C 437.45 513.67 435.75 519.58 430.36 519.78 C 428.37 516.45 427.72 512.56 426.26 509.02 C 424.92 509.77 423.51 510.42 422.33 511.41 C 421.42 514.14 421.24 517.17 419.58 519.62 C 418.45 521.78 415.86 522.14 413.81 522.96 C 413.18 521.33 412.55 519.71 411.92 518.10 C 408.54 517.09 405.16 516.11 401.74 515.29 C 401.58 511.59 401.66 507.83 400.61 504.25 C 396.50 503.72 392.85 506.03 388.94 506.77 C 385.86 505.42 385.66 501.86 386.97 499.17 C 396.72 480.57 403.50 460.60 411.22 441.10 C 422.24 411.95 432.29 382.43 440.55 352.36 C 442.92 346.68 441.60 339.56 446.04 334.82 C 449.40 333.14 452.97 335.40 456.05 336.77 C 456.94 334.21 457.95 331.68 459.17 329.26 C 460.51 329.39 461.87 329.47 463.21 329.76 C 464.52 332.68 465.00 335.90 466.25 338.85 C 469.30 336.52 470.19 332.58 470.95 329.03 C 471.69 324.90 472.42 320.75 473.49 316.69 C 475.46 316.61 477.44 316.54 479.43 316.46 C 480.16 320.43 479.23 325.84 483.27 328.22 C 485.16 329.42 487.46 328.38 489.12 327.24 C 493.28 324.37 495.68 319.76 499.08 316.12 C 503.57 311.19 506.91 305.35 511.39 300.41 Z" />
</g>
<g id="#3668b1ff">
<path fill="#3668b1" opacity="1.00" d=" M 768.00 382.80 C 781.32 382.73 794.65 382.69 807.98 382.27 C 776.16 468.17 743.62 553.80 711.74 639.67 C 701.83 640.49 691.89 640.25 681.97 640.41 C 659.98 640.64 637.98 640.54 615.99 640.72 C 593.68 641.74 571.33 641.20 548.99 641.42 C 533.66 641.62 518.33 641.66 502.99 641.81 C 493.01 642.55 483.00 642.12 473.00 642.24 C 440.62 642.58 408.24 642.72 375.85 642.74 C 390.35 605.31 405.05 567.95 419.67 530.56 C 421.10 526.48 423.85 523.07 426.75 519.94 C 427.91 521.84 428.86 523.95 430.46 525.56 C 432.13 525.79 433.86 525.89 435.55 525.61 C 438.62 524.10 440.68 521.26 443.33 519.20 C 447.86 518.96 451.52 524.72 455.99 521.96 C 459.44 520.73 460.42 516.89 462.00 513.98 C 465.69 505.72 469.72 497.62 473.39 489.36 C 480.03 473.36 486.72 457.38 493.41 441.41 C 499.55 423.72 504.26 405.58 508.90 387.45 C 530.61 387.49 552.29 386.43 574.00 386.36 C 581.00 386.30 588.02 386.52 595.00 385.83 C 612.99 385.21 631.02 385.98 648.99 384.76 C 668.33 384.78 687.66 384.24 707.00 384.18 C 727.31 382.95 747.68 384.00 768.00 382.80 M 520.45 398.43 C 516.76 399.57 516.78 404.29 517.55 407.39 C 519.02 410.88 524.86 410.43 525.76 406.71 C 527.49 403.29 525.00 396.86 520.45 398.43 M 508.50 399.34 C 506.14 400.89 505.99 404.08 506.36 406.61 C 506.69 410.68 513.25 411.08 514.67 407.55 C 517.07 403.77 513.39 395.68 508.50 399.34 M 531.43 402.30 C 531.48 409.37 531.56 416.44 531.55 423.51 C 527.72 423.43 523.89 423.14 520.07 423.39 C 517.19 423.59 514.07 424.83 512.74 427.57 C 511.01 432.53 511.50 437.85 511.17 443.00 C 510.92 448.65 510.10 454.34 510.73 459.99 C 512.07 465.84 513.99 472.23 519.03 475.97 C 523.31 479.36 529.50 479.44 534.34 477.30 C 538.87 474.92 539.24 469.14 540.46 464.75 C 543.88 470.13 548.34 474.72 552.58 479.45 C 554.78 481.95 558.09 483.04 561.23 483.86 C 568.07 485.24 575.20 485.94 582.07 484.33 C 590.04 483.10 596.92 478.70 603.82 474.82 C 608.20 472.36 611.91 468.96 615.82 465.85 C 616.38 471.54 617.41 478.02 622.38 481.63 C 628.15 485.99 636.13 488.83 643.22 486.17 C 647.95 484.60 650.68 479.96 652.74 475.72 C 656.30 468.34 657.67 459.61 663.57 453.56 C 665.86 451.55 669.67 448.73 672.47 451.51 C 679.15 457.10 678.93 466.52 678.61 474.44 C 677.04 473.75 674.71 473.82 674.15 471.87 C 671.71 467.37 670.64 462.37 669.43 457.46 C 666.43 456.34 663.81 458.41 661.37 459.83 C 661.40 464.22 662.47 468.52 664.51 472.41 C 666.68 476.59 667.90 481.36 670.98 485.02 C 674.49 486.90 678.89 486.56 682.67 485.68 C 684.80 485.31 685.73 483.08 686.19 481.22 C 688.10 471.40 688.01 461.14 685.59 451.42 C 683.96 445.23 679.01 440.46 673.41 437.69 C 669.27 436.25 665.37 438.91 662.05 441.07 C 657.75 443.87 655.57 448.67 652.82 452.81 C 647.52 460.79 643.97 469.77 638.84 477.85 C 637.60 479.61 635.62 482.04 633.19 481.03 C 629.16 479.88 628.21 475.17 627.53 471.60 C 627.17 466.69 626.59 461.57 627.76 456.74 C 629.50 455.09 631.59 453.88 633.58 452.55 C 642.30 446.76 650.18 439.85 658.21 433.19 C 659.78 431.82 661.58 430.22 661.53 427.95 C 661.84 423.54 662.11 419.12 662.20 414.70 C 657.66 417.91 653.66 421.82 649.95 425.95 C 645.19 431.21 639.71 435.73 634.42 440.44 C 629.66 444.38 623.33 447.68 617.00 445.96 C 612.47 445.31 608.06 443.25 605.17 439.63 C 604.27 436.34 607.53 434.33 610.03 433.12 C 615.99 430.58 622.33 428.97 628.24 426.32 C 631.64 423.47 629.82 418.26 630.33 414.40 C 622.52 415.97 614.15 417.49 608.05 423.06 C 604.34 426.68 600.05 430.10 598.04 435.03 C 596.13 439.20 595.95 444.01 596.64 448.48 C 599.34 454.29 605.46 456.96 611.32 458.44 C 609.34 460.12 607.30 461.74 605.09 463.11 C 600.50 465.89 596.35 469.55 591.12 471.12 C 585.07 473.47 578.46 473.94 572.05 473.24 C 564.24 471.52 557.82 466.24 552.52 460.50 C 546.31 452.08 545.94 441.25 543.85 431.38 C 543.31 421.65 542.55 411.91 542.65 402.15 C 538.90 402.19 535.16 402.24 531.43 402.30 M 687.72 403.39 C 685.63 410.69 682.48 417.66 680.61 425.01 C 683.66 439.68 689.32 453.70 695.90 467.13 C 698.48 471.98 699.53 478.40 704.83 481.15 C 708.95 483.79 714.58 484.60 718.84 481.80 C 725.42 478.20 729.45 471.58 731.68 464.62 C 739.07 466.57 744.45 472.87 751.89 474.67 C 754.91 473.13 756.72 470.08 758.90 467.60 C 750.65 461.66 741.42 457.06 733.91 450.12 C 722.85 441.20 714.66 429.40 704.01 420.05 C 701.65 425.94 701.31 432.33 701.33 438.60 C 709.73 445.07 717.65 452.12 725.48 459.26 C 723.13 463.25 720.79 467.29 717.89 470.89 C 716.53 472.72 714.12 472.79 712.10 472.38 C 708.97 470.75 706.92 467.70 705.38 464.63 C 696.60 445.25 692.40 424.22 689.46 403.27 C 689.02 403.30 688.15 403.36 687.72 403.39 M 735.46 472.44 C 731.44 473.75 731.70 478.95 732.73 482.25 C 734.98 484.57 740.00 484.31 740.60 480.62 C 741.61 477.14 740.33 470.85 735.46 472.44 M 498.58 489.44 C 496.10 491.44 496.22 495.02 496.75 497.86 C 498.22 499.27 500.53 501.10 502.61 499.85 C 506.26 498.39 506.09 493.44 504.65 490.45 C 503.70 488.04 500.36 487.96 498.58 489.44 M 634.33 503.29 C 630.91 504.03 629.71 507.78 630.28 510.89 C 630.16 515.13 637.03 516.37 638.61 512.54 C 640.51 509.30 639.00 502.60 634.33 503.29 M 614.44 504.39 C 609.85 506.35 610.14 515.83 615.99 515.62 C 622.93 515.52 621.69 501.51 614.44 504.39 M 564.97 508.91 C 563.11 511.65 562.78 516.26 565.77 518.36 C 567.25 518.82 568.88 518.86 570.40 518.47 C 574.19 515.88 572.53 510.56 570.78 507.20 C 568.83 507.54 566.28 507.04 564.97 508.91 M 527.82 527.74 C 526.86 530.05 525.06 532.33 525.60 534.97 C 527.19 543.99 530.60 552.58 532.28 561.59 C 534.32 570.52 535.51 579.69 538.74 588.31 C 541.03 593.84 544.28 599.15 548.92 603.03 C 553.61 605.89 559.74 605.01 564.29 602.27 C 571.57 597.79 579.16 593.25 584.27 586.20 C 587.18 582.67 589.11 578.22 592.91 575.49 C 594.92 578.19 596.11 581.37 597.56 584.39 C 600.40 590.54 604.00 596.41 608.66 601.36 C 610.67 603.69 613.94 604.62 616.94 604.26 C 620.95 603.36 622.87 599.43 625.27 596.54 C 627.38 598.30 628.44 600.95 630.33 602.92 C 633.40 604.15 637.90 603.94 639.81 600.84 C 641.64 597.91 642.83 594.50 645.56 592.23 C 646.79 595.43 647.25 598.95 648.98 601.96 C 650.99 603.39 653.55 603.85 655.97 603.41 C 659.11 602.02 660.37 598.50 662.34 595.92 C 664.27 598.36 665.51 601.42 668.02 603.37 C 670.30 603.59 672.63 603.56 674.89 603.14 C 677.73 602.00 678.91 598.89 680.71 596.63 C 681.44 598.13 682.07 599.70 682.98 601.13 C 685.63 603.32 689.51 601.79 691.74 599.68 C 695.81 596.05 695.87 590.24 697.39 585.38 C 698.73 580.94 700.62 575.85 705.21 573.87 C 708.33 572.30 711.93 575.26 712.35 578.41 C 712.86 582.18 712.57 586.02 712.56 589.82 C 711.84 590.03 710.40 590.45 709.67 590.66 C 708.05 586.99 707.62 582.94 706.13 579.26 C 701.53 579.56 699.15 584.90 699.78 588.98 C 700.69 593.11 703.31 596.82 706.54 599.50 C 710.85 602.81 718.62 601.76 719.49 595.61 C 721.07 589.87 721.50 583.87 721.32 577.94 C 721.32 571.40 716.33 565.18 709.95 563.76 C 705.59 563.11 700.84 564.53 697.94 567.94 C 692.17 574.10 690.30 582.63 687.46 590.33 C 686.94 592.07 685.08 592.70 683.75 593.68 C 682.64 586.85 686.86 580.75 686.61 574.01 C 686.59 570.52 686.43 567.04 686.34 563.56 C 683.28 563.49 680.22 563.49 677.18 563.73 C 675.91 573.67 674.80 583.64 672.76 593.48 C 672.13 593.52 670.85 593.61 670.21 593.66 C 668.49 583.93 668.65 574.05 668.83 564.21 C 666.66 564.23 664.50 564.26 662.35 564.27 C 661.89 568.47 661.68 572.69 661.34 576.89 C 660.64 581.30 659.11 585.52 657.79 589.77 C 657.06 591.59 656.55 594.54 653.90 593.58 C 650.72 584.15 652.31 573.97 651.87 564.20 C 649.10 564.28 646.34 564.36 643.58 564.45 C 642.66 573.89 641.38 583.59 636.93 592.11 C 636.18 592.23 634.67 592.47 633.92 592.60 C 632.72 583.62 629.75 574.98 628.66 565.99 C 628.03 560.21 627.72 554.40 627.74 548.60 C 624.13 548.57 620.53 548.56 616.93 548.64 C 617.94 562.53 622.99 576.42 619.66 590.37 C 619.28 592.77 617.23 595.50 614.52 594.54 C 610.49 587.48 605.91 580.67 602.91 573.06 C 601.81 570.16 599.30 566.66 601.74 563.77 C 608.91 554.02 616.54 544.61 624.40 535.40 C 628.93 530.87 627.10 523.91 627.49 518.17 C 625.70 518.63 623.73 519.05 622.80 520.84 C 613.72 533.75 605.90 547.59 595.52 559.54 C 592.41 563.09 587.92 565.04 583.43 566.16 C 579.79 566.96 575.56 567.04 572.61 564.43 C 571.24 563.13 568.36 561.69 569.47 559.44 C 573.60 552.61 580.26 547.92 586.32 542.95 C 586.76 538.74 586.48 534.50 586.30 530.29 C 583.87 530.92 581.31 531.63 579.75 533.76 C 574.07 540.52 567.93 547.24 564.63 555.57 C 562.34 560.46 562.02 566.27 563.63 571.41 C 566.83 577.49 574.58 576.54 580.35 576.52 C 574.44 580.80 569.74 586.57 563.66 590.60 C 557.15 594.16 549.57 589.23 546.91 583.09 C 540.50 569.34 540.39 553.82 538.97 538.99 C 537.80 528.90 539.17 518.70 537.83 508.63 C 533.77 514.59 531.15 521.37 527.82 527.74 M 506.53 542.51 C 505.21 545.33 507.72 547.83 508.81 550.27 C 511.68 555.04 513.19 560.70 512.24 566.27 C 510.40 565.39 508.30 564.71 507.14 562.92 C 503.29 557.50 500.15 551.61 497.45 545.55 C 495.83 542.10 494.13 538.43 490.90 536.18 C 487.28 533.12 482.19 532.90 477.70 533.40 C 466.93 534.87 457.93 542.10 451.43 550.43 C 444.51 563.37 444.38 578.66 446.29 592.87 C 448.55 605.56 450.32 618.42 454.03 630.79 C 457.22 627.92 460.27 624.76 462.25 620.91 C 462.90 615.38 461.56 609.83 459.26 604.82 C 455.96 597.33 456.22 589.01 456.24 581.00 C 456.35 573.10 456.46 565.09 458.44 557.39 C 459.82 551.67 464.01 546.78 469.41 544.45 C 469.55 549.78 469.16 555.22 470.81 560.38 C 471.99 565.65 475.29 570.21 479.44 573.58 C 483.28 576.50 488.39 576.96 493.04 576.38 C 496.00 576.00 497.89 573.47 499.96 571.59 C 502.08 573.01 504.26 574.77 506.97 574.73 C 510.82 574.79 516.44 575.67 518.08 571.07 C 521.45 561.67 520.26 551.32 518.48 541.69 C 517.28 537.03 517.32 531.44 513.24 528.18 C 511.00 532.95 508.50 537.62 506.53 542.51 Z" />
<path fill="#3668b1" opacity="1.00" d=" M 522.51 430.56 C 523.20 430.48 524.56 430.34 525.25 430.26 C 526.31 433.23 526.76 436.35 526.86 439.49 C 529.52 440.05 534.49 438.27 534.95 442.22 C 535.47 444.32 534.62 446.44 534.23 448.51 C 531.70 448.94 528.47 447.86 526.62 450.12 C 525.84 453.17 528.48 455.71 529.23 458.54 C 530.27 462.36 529.59 466.41 528.51 470.15 C 525.46 469.40 523.91 466.68 523.07 463.88 C 518.85 453.25 520.25 441.47 522.51 430.56 Z" />
<path fill="#3668b1" opacity="1.00" d=" M 479.58 554.04 C 479.42 549.07 479.35 544.01 480.69 539.17 C 484.25 542.11 487.74 545.65 488.66 550.37 C 490.15 557.10 490.81 564.45 488.23 571.01 C 482.61 567.33 480.02 560.51 479.58 554.04 Z" />
</g>
<g id="#231f20ff">
<path fill="#231f20" opacity="1.00" d=" M 239.34 730.55 C 240.40 731.19 241.51 731.80 242.49 732.60 C 266.55 755.92 290.60 779.30 315.49 801.74 C 315.69 778.96 315.78 756.15 314.68 733.40 C 317.60 733.57 320.53 733.57 323.46 733.48 C 322.39 744.62 322.55 755.82 322.22 767.00 C 321.02 786.29 322.54 805.60 322.28 824.90 C 320.86 824.30 319.32 823.83 318.31 822.61 C 307.03 810.92 295.58 799.38 283.68 788.31 C 271.14 776.18 258.49 764.16 245.48 752.54 C 245.31 770.37 245.69 788.19 245.73 806.02 C 246.08 811.61 246.51 817.20 246.55 822.81 C 243.76 822.73 240.96 822.72 238.17 822.84 C 238.87 797.90 239.55 772.96 239.23 748.00 C 239.28 742.18 238.78 736.35 239.34 730.55 Z" />
<path fill="#231f20" opacity="1.00" d=" M 658.37 741.37 C 665.14 734.21 675.47 731.77 685.02 731.78 C 692.41 731.65 699.79 733.60 705.99 737.66 C 704.05 741.65 703.10 746.01 701.29 750.05 C 699.07 746.29 697.26 742.02 693.43 739.59 C 685.46 734.35 673.57 736.06 667.48 743.46 C 665.25 746.08 664.15 749.59 664.35 753.02 C 664.42 758.57 668.23 763.37 672.75 766.23 C 682.85 772.85 696.43 772.93 705.13 781.87 C 710.80 786.91 711.93 795.33 710.06 802.36 C 708.21 810.20 702.22 816.52 695.17 820.10 C 688.73 823.60 681.25 824.52 674.02 824.43 C 665.87 824.33 657.51 822.08 651.02 817.04 C 651.57 813.14 652.62 809.32 653.56 805.50 C 653.89 805.42 654.56 805.26 654.90 805.18 C 658.25 810.37 662.47 815.32 668.48 817.44 C 676.92 820.28 687.59 819.86 694.11 813.11 C 700.65 807.18 701.44 795.42 694.57 789.44 C 684.66 781.49 670.93 780.78 660.92 773.07 C 651.11 765.87 650.20 750.13 658.37 741.37 Z" />
<path fill="#231f20" opacity="1.00" d=" M 121.11 733.31 C 125.59 733.65 130.09 733.65 134.57 733.43 C 134.01 745.61 133.46 757.79 133.50 770.00 C 133.63 781.73 132.40 794.23 137.83 805.07 C 141.51 812.84 150.20 816.48 158.21 817.87 C 167.27 819.13 176.99 818.75 185.21 814.34 C 192.39 810.69 196.87 803.08 198.19 795.31 C 200.08 783.64 199.32 771.77 199.41 760.00 C 199.50 751.11 198.80 742.25 198.29 733.38 C 201.45 733.57 204.62 733.62 207.78 733.46 C 207.04 749.97 206.31 766.47 206.50 783.00 C 206.82 793.96 203.90 805.90 195.58 813.57 C 187.82 821.23 176.64 824.30 165.97 824.42 C 155.19 824.53 143.68 823.68 134.43 817.57 C 128.01 813.57 124.19 806.47 122.57 799.25 C 119.98 788.32 122.19 777.07 122.03 766.00 C 122.25 755.09 121.47 744.20 121.11 733.31 Z" />
<path fill="#231f20" opacity="1.00" d=" M 382.15 733.33 C 387.33 733.64 392.53 733.68 397.71 733.34 C 404.46 751.38 412.61 768.85 420.42 786.45 C 424.25 794.53 427.70 802.80 431.81 810.76 C 440.82 792.45 448.92 773.73 457.01 755.01 C 459.99 747.81 463.05 740.65 465.61 733.29 C 469.16 733.60 472.73 733.62 476.30 733.50 C 466.65 752.04 457.80 770.98 448.77 789.83 C 443.80 800.77 438.37 811.52 434.05 822.74 C 430.59 822.73 427.13 822.68 423.67 822.78 C 410.45 792.68 396.33 762.98 382.15 733.33 Z" />
<path fill="#231f20" opacity="1.00" d=" M 492.27 732.57 C 509.59 734.03 527.08 734.07 544.40 732.53 C 544.30 735.14 544.29 737.76 544.34 740.39 C 531.57 738.96 518.69 739.51 505.88 739.31 C 505.61 750.62 505.28 761.94 505.39 773.26 C 517.18 772.85 528.99 772.87 540.77 771.98 C 540.70 774.51 540.70 777.05 540.79 779.60 C 528.98 779.11 517.19 778.24 505.35 778.57 C 505.54 791.48 505.64 804.39 506.10 817.29 C 519.18 817.35 532.25 817.07 545.30 816.20 C 545.20 818.66 545.19 821.13 545.26 823.60 C 531.85 822.97 518.41 822.11 504.99 823.02 C 500.75 823.41 496.48 823.46 492.23 823.61 C 492.42 817.74 492.60 811.87 492.74 805.99 C 493.87 794.03 493.20 782.00 493.38 770.00 C 493.67 757.50 492.34 745.06 492.27 732.57 Z" />
<path fill="#231f20" opacity="1.00" d=" M 566.36 733.28 C 578.23 733.99 590.12 733.30 602.00 733.22 C 610.22 733.29 619.41 734.44 625.59 740.42 C 630.56 745.15 631.44 752.75 630.05 759.18 C 628.53 765.67 623.36 770.65 617.56 773.55 C 612.25 776.33 606.36 777.74 600.52 778.93 C 613.35 793.99 626.83 808.48 640.51 822.78 C 635.00 822.74 629.48 822.48 624.01 823.23 C 621.14 821.01 619.17 817.87 616.80 815.17 C 607.05 803.65 597.76 791.62 586.55 781.45 C 584.77 779.60 581.60 778.98 579.57 780.76 C 579.33 794.96 579.80 809.14 580.69 823.30 C 575.95 822.46 571.13 822.67 566.35 822.85 C 568.27 800.96 567.26 778.95 567.51 757.00 C 567.77 749.06 566.65 741.20 566.36 733.28 M 580.38 738.56 C 580.29 750.55 579.34 762.51 579.59 774.50 C 590.10 775.04 602.18 776.21 610.72 768.73 C 619.11 762.21 619.53 746.61 609.54 741.40 C 600.71 736.22 590.07 738.10 580.38 738.56 Z" />
<path fill="#231f20" opacity="1.00" d=" M 731.37 733.30 C 736.16 733.66 740.98 733.68 745.79 733.35 C 744.29 763.17 743.94 793.08 745.78 822.89 C 740.98 822.67 736.18 822.61 731.39 822.88 C 732.92 802.29 732.58 781.64 732.51 761.01 C 732.53 751.75 731.64 742.54 731.37 733.30 Z" />
<path fill="#231f20" opacity="1.00" d=" M 762.69 732.56 C 781.74 734.06 800.89 733.59 820.00 733.48 C 826.10 733.54 832.14 732.43 838.25 732.61 C 838.08 735.29 838.02 737.99 837.94 740.69 C 827.55 740.38 817.19 739.18 806.80 739.77 C 806.24 758.84 806.48 777.92 806.58 797.00 C 806.36 805.79 807.53 814.53 807.54 823.32 C 802.82 822.48 798.02 822.65 793.26 822.88 C 793.71 815.59 793.54 808.28 794.29 801.01 C 794.38 781.05 794.66 761.06 794.13 741.11 C 793.88 740.75 793.37 740.03 793.11 739.67 C 782.92 739.42 772.77 740.51 762.58 740.73 C 762.86 738.01 762.85 735.27 762.69 732.56 Z" />
<path fill="#231f20" opacity="1.00" d=" M 855.35 732.52 C 872.71 734.03 890.24 734.10 907.60 732.52 C 907.23 735.12 907.25 737.75 907.43 740.38 C 894.88 738.98 882.22 739.52 869.63 739.30 C 868.54 742.76 868.72 746.42 868.63 750.00 C 868.53 757.75 868.48 765.50 868.58 773.26 C 880.32 772.95 892.07 772.77 903.80 772.02 C 903.70 774.52 903.70 777.03 903.83 779.55 C 892.06 779.20 880.33 778.22 868.54 778.55 C 868.42 791.48 868.75 804.40 869.36 817.30 C 882.36 817.31 895.37 817.15 908.34 816.16 C 908.18 818.64 908.17 821.13 908.31 823.62 C 894.89 822.90 881.43 822.13 868.00 823.02 C 863.78 823.40 859.54 823.45 855.32 823.61 C 855.66 808.74 856.80 793.89 856.40 779.00 C 856.77 763.49 855.81 748.01 855.35 732.52 Z" />
<path fill="#231f20" opacity="1.00" d=" M 351.52 733.35 C 356.46 733.62 361.40 733.71 366.33 733.35 C 365.07 745.19 365.77 757.13 364.79 768.99 C 364.77 776.66 364.75 784.33 364.79 792.00 C 365.70 802.44 365.11 812.95 366.33 823.37 C 361.45 822.43 356.48 822.66 351.55 822.88 C 353.30 804.65 352.67 786.29 352.79 768.00 C 352.56 756.44 352.73 744.86 351.52 733.35 Z" />
<path fill="#231f20" opacity="1.00" d=" M 255.31 854.58 C 258.45 854.67 261.60 854.67 264.74 854.57 C 264.01 874.66 264.00 894.79 264.75 914.88 C 261.62 914.74 258.49 914.73 255.37 914.91 C 256.60 902.30 256.16 889.64 256.24 877.00 C 256.30 869.51 255.99 862.03 255.31 854.58 Z" />
<path fill="#231f20" opacity="1.00" d=" M 552.23 854.60 C 555.39 854.66 558.55 854.66 561.72 854.58 C 561.04 874.65 560.94 894.75 561.76 914.82 C 558.89 914.75 556.02 914.75 553.16 914.88 C 553.27 912.35 553.36 909.83 553.54 907.31 C 550.00 911.80 544.86 915.31 539.03 915.67 C 532.81 916.20 526.15 915.86 520.84 912.21 C 513.18 907.52 510.75 896.85 514.10 888.81 C 517.03 882.00 524.01 877.51 531.21 876.51 C 536.10 876.15 541.35 875.83 545.86 878.12 C 548.77 879.44 550.89 881.90 552.98 884.23 C 552.80 874.35 553.14 864.45 552.23 854.60 M 531.42 880.50 C 525.09 882.59 521.94 889.70 522.29 895.99 C 521.90 901.41 523.31 907.75 528.30 910.73 C 531.70 913.07 535.98 912.88 539.91 912.71 C 546.65 912.40 551.97 906.32 552.97 899.92 C 554.16 893.94 553.19 886.83 548.39 882.63 C 543.66 878.96 536.93 878.62 531.42 880.50 Z" />
<path fill="#231f20" opacity="1.00" d=" M 941.11 854.58 C 944.27 854.67 947.43 854.68 950.60 854.60 C 949.26 874.65 949.18 894.80 950.62 914.85 C 947.68 914.75 944.74 914.74 941.81 914.83 C 941.87 912.51 941.91 910.19 942.00 907.89 C 937.75 912.73 931.63 916.09 925.07 915.81 C 919.03 916.23 912.69 915.04 907.96 911.05 C 902.46 906.79 900.48 899.21 901.71 892.57 C 903.19 883.85 911.47 877.51 919.97 876.53 C 924.72 876.09 929.77 875.91 934.22 877.91 C 937.30 879.28 939.51 881.94 941.77 884.35 C 941.79 874.42 941.54 864.49 941.11 854.58 M 921.31 880.11 C 917.72 881.02 914.57 883.50 912.95 886.84 C 909.98 892.79 909.84 900.16 912.83 906.13 C 914.84 910.25 919.39 912.84 923.95 912.77 C 928.32 913.11 933.07 912.52 936.45 909.46 C 943.69 902.57 944.54 889.09 936.64 882.38 C 932.29 879.27 926.38 878.73 921.31 880.11 Z" />
<path fill="#231f20" opacity="1.00" d=" M 78.12 854.60 C 81.26 854.66 84.40 854.64 87.54 854.61 C 86.97 864.53 86.62 874.45 86.59 884.39 C 90.34 881.03 94.40 877.64 99.50 876.69 C 107.03 875.60 115.60 876.13 121.48 881.53 C 129.31 888.56 128.72 902.10 121.07 909.06 C 114.52 915.82 104.32 917.04 95.50 915.08 C 92.37 914.13 89.62 912.30 86.97 910.44 C 84.06 912.03 81.24 913.76 78.30 915.30 C 78.66 895.07 79.01 874.82 78.12 854.60 M 96.46 880.52 C 91.17 882.09 87.37 887.05 86.66 892.46 C 86.06 898.07 85.89 904.60 89.90 909.09 C 96.39 915.66 108.97 914.93 114.16 907.07 C 118.84 900.21 119.17 889.96 113.39 883.63 C 109.15 879.08 102.07 878.47 96.46 880.52 Z" />
<path fill="#231f20" opacity="1.00" d=" M 175.62 854.62 C 178.87 854.65 182.12 854.63 185.37 854.63 C 184.37 861.69 184.61 868.83 184.48 875.95 C 184.46 888.91 184.02 901.91 185.35 914.83 C 182.41 914.75 179.47 914.75 176.54 914.86 C 176.59 912.54 176.65 910.22 176.71 907.92 C 173.22 911.52 169.00 914.80 163.89 915.51 C 157.13 916.24 149.66 916.20 143.93 912.00 C 134.29 905.81 133.47 890.36 141.73 882.70 C 148.13 876.43 157.88 875.09 166.34 876.98 C 170.55 877.92 173.52 881.21 176.42 884.17 C 176.59 874.31 176.45 864.44 175.62 854.62 M 154.46 880.66 C 147.09 883.56 144.53 892.49 145.57 899.74 C 146.03 905.63 150.12 911.60 156.24 912.55 C 160.70 912.93 165.73 913.35 169.60 910.62 C 174.59 907.19 177.07 900.92 176.70 894.99 C 176.96 889.91 174.82 884.47 170.40 881.69 C 165.62 878.98 159.56 878.68 154.46 880.66 Z" />
<path fill="#231f20" opacity="1.00" d=" M 283.35 854.59 C 286.51 854.64 289.68 854.65 292.84 854.63 C 291.85 864.15 292.30 873.74 292.28 883.31 C 296.26 879.54 301.27 876.49 306.90 876.35 C 312.18 876.00 317.99 876.24 322.39 879.55 C 325.37 881.69 326.73 885.42 326.81 888.99 C 327.11 897.60 325.74 906.30 327.45 914.83 C 324.35 914.72 321.25 914.73 318.16 914.92 C 318.38 906.97 318.85 899.03 318.52 891.09 C 318.31 886.73 315.95 881.93 311.41 880.81 C 307.03 879.83 302.26 880.08 298.14 881.93 C 294.35 883.63 292.47 887.94 292.29 891.90 C 292.08 899.55 292.25 907.22 292.84 914.86 C 289.69 914.69 286.53 914.73 283.38 914.90 C 284.43 904.29 284.07 893.63 284.15 883.00 C 284.06 873.52 284.42 864.02 283.35 854.59 Z" />
<path fill="#231f20" opacity="1.00" d=" M 634.14 854.61 C 637.29 854.65 640.44 854.63 643.59 854.61 C 643.53 864.53 642.40 874.42 642.74 884.35 C 646.38 881.07 650.30 877.70 655.29 876.82 C 661.96 875.71 669.42 875.91 675.24 879.78 C 679.82 882.67 683.04 887.84 682.85 893.35 C 683.30 898.41 682.09 903.74 678.55 907.53 C 670.00 917.76 653.11 918.76 642.96 910.40 C 640.11 912.06 637.32 913.84 634.37 915.33 C 634.70 895.10 635.16 874.83 634.14 854.61 M 652.43 880.54 C 646.92 882.17 643.27 887.44 642.67 893.03 C 642.29 898.04 642.06 903.54 645.02 907.90 C 651.05 915.93 665.48 915.31 670.63 906.54 C 675.06 899.50 675.11 889.13 668.94 883.06 C 664.61 878.94 657.84 878.60 652.43 880.54 Z" />
<path fill="#231f20" opacity="1.00" d=" M 35.43 859.32 C 35.96 859.33 37.04 859.34 37.57 859.34 C 48.30 877.90 58.59 896.73 70.16 914.79 C 66.43 914.69 62.70 914.68 59.01 915.29 C 56.15 908.91 52.59 902.87 49.27 896.73 C 48.43 895.55 47.85 893.44 46.04 893.63 C 37.67 893.52 29.29 893.33 20.93 893.73 C 19.28 894.88 18.57 896.86 17.62 898.57 C 15.00 903.95 12.01 909.17 9.96 914.82 C 7.32 914.76 4.68 914.73 2.04 914.68 C 13.74 896.59 24.61 877.96 35.43 859.32 M 22.42 890.26 C 30.26 890.40 38.12 890.44 45.96 890.23 C 42.14 883.36 37.98 876.69 34.00 869.92 C 30.10 876.67 26.04 883.35 22.42 890.26 Z" />
<path fill="#231f20" opacity="1.00" d=" M 492.36 859.25 C 495.15 858.79 499.37 860.45 498.50 863.93 C 497.24 868.32 488.98 868.69 487.88 863.83 C 487.22 861.43 490.09 859.25 492.36 859.25 Z" />
<path fill="#231f20" opacity="1.00" d=" M 969.46 859.49 C 972.69 858.19 978.14 860.42 976.71 864.56 C 974.80 868.58 967.40 868.17 966.23 863.68 C 966.00 861.64 967.55 859.94 969.46 859.49 Z" />
<path fill="#231f20" opacity="1.00" d=" M 607.55 860.23 C 611.13 860.50 614.73 860.59 618.32 860.35 C 616.73 878.48 617.21 896.72 617.92 914.88 C 614.46 914.72 611.00 914.74 607.55 914.81 C 608.59 907.58 608.55 900.27 608.56 893.00 C 608.52 882.07 608.81 871.11 607.55 860.23 Z" />
<path fill="#231f20" opacity="1.00" d=" M 787.24 860.20 C 797.84 861.16 808.49 859.50 819.08 860.65 C 823.38 861.35 828.13 862.49 831.07 865.98 C 834.37 870.28 832.97 876.70 828.98 880.05 C 825.01 883.28 819.90 884.63 814.97 885.56 C 820.23 886.30 825.80 886.80 830.43 889.65 C 835.40 892.81 837.13 900.01 833.96 905.01 C 830.43 911.14 823.08 913.61 816.48 914.62 C 806.80 916.45 796.99 913.61 787.30 915.32 C 788.00 904.89 787.70 894.44 787.78 884.00 C 787.72 876.06 787.89 868.11 787.24 860.20 M 797.35 863.37 C 796.84 870.42 796.59 877.50 796.62 884.58 C 802.28 884.43 808.08 885.05 813.61 883.48 C 816.87 882.64 820.39 881.25 822.07 878.11 C 824.72 874.10 823.54 868.01 819.26 865.65 C 812.54 862.01 804.64 863.48 797.35 863.37 M 796.65 887.54 C 796.64 895.70 796.75 903.86 797.36 912.00 C 804.07 912.24 811.12 913.10 817.51 910.48 C 820.73 908.94 823.46 906.26 824.97 903.03 C 826.50 898.77 825.62 892.96 821.17 890.82 C 813.61 887.04 804.85 887.61 796.65 887.54 Z" />
<path fill="#231f20" opacity="1.00" d=" M 200.13 883.13 C 204.97 878.11 212.17 876.10 218.99 876.27 C 226.12 875.97 234.03 877.44 238.95 883.04 C 242.01 886.38 242.73 891.06 242.41 895.43 C 229.77 895.72 217.08 894.84 204.46 895.79 C 204.04 901.70 206.98 908.04 212.59 910.48 C 221.62 914.62 232.23 912.51 240.41 907.38 C 240.14 908.72 239.80 910.05 239.38 911.37 C 231.30 915.95 221.59 916.70 212.57 915.13 C 205.70 913.24 198.57 909.25 195.92 902.26 C 194.25 895.72 195.46 888.20 200.13 883.13 M 210.53 881.54 C 207.02 884.11 205.70 888.47 204.71 892.50 C 214.39 892.72 224.08 892.78 233.76 892.43 C 233.28 888.80 232.87 884.68 229.98 882.09 C 224.66 877.40 216.20 877.60 210.53 881.54 Z" />
<path fill="#231f20" opacity="1.00" d=" M 344.24 880.56 C 351.59 876.68 360.19 875.18 368.37 876.92 C 373.08 878.18 377.88 881.70 378.33 886.93 C 378.76 893.92 378.29 900.94 378.55 907.94 C 378.63 909.15 378.64 910.47 379.41 911.51 C 381.10 912.60 383.22 912.45 385.12 912.97 C 380.58 916.42 372.99 916.13 370.08 910.73 C 363.69 915.45 355.36 917.04 347.66 915.13 C 343.88 913.99 339.84 911.27 339.46 907.01 C 338.96 903.21 341.38 899.52 344.77 897.95 C 352.24 894.28 360.94 895.42 368.73 892.92 C 371.06 892.55 370.75 889.86 370.70 888.11 C 370.69 884.45 367.86 881.38 364.50 880.30 C 357.52 877.94 349.63 880.18 344.34 885.16 C 344.29 883.61 344.25 882.09 344.24 880.56 M 350.89 899.94 C 346.55 902.64 347.81 909.89 352.46 911.52 C 358.58 914.23 365.74 911.95 370.49 907.59 C 370.58 903.45 370.55 899.32 370.55 895.19 C 364.00 896.68 356.75 896.29 350.89 899.94 Z" />
<path fill="#231f20" opacity="1.00" d=" M 405.19 883.14 C 413.24 874.04 430.16 873.28 437.37 883.74 C 440.70 879.59 445.59 876.65 450.98 876.41 C 456.70 876.04 463.41 875.88 467.82 880.19 C 470.99 883.20 471.22 887.89 471.09 891.99 C 470.73 899.61 470.02 907.31 471.47 914.86 C 468.18 914.71 464.89 914.74 461.60 914.84 C 462.95 906.62 462.40 898.24 462.57 889.95 C 462.91 885.69 459.99 881.27 455.62 880.65 C 449.64 879.53 441.68 880.57 438.71 886.63 C 436.85 895.91 437.79 905.47 438.57 914.83 C 435.46 914.73 432.35 914.75 429.24 914.91 C 429.50 905.73 430.19 896.52 429.44 887.35 C 428.67 882.55 423.48 880.08 419.02 880.27 C 413.74 879.97 407.40 882.07 405.86 887.70 C 403.71 896.63 405.55 905.83 405.74 914.87 C 402.60 914.73 399.45 914.75 396.32 914.90 C 397.57 902.38 397.26 889.78 396.38 877.25 C 399.39 877.31 402.40 877.31 405.41 877.31 C 405.33 879.24 405.26 881.19 405.19 883.14 Z" />
<path fill="#231f20" opacity="1.00" d=" M 704.70 883.25 C 708.57 880.04 712.85 876.82 718.07 876.47 C 724.08 876.01 731.05 875.79 735.75 880.27 C 740.29 884.51 739.69 891.30 739.43 896.96 C 738.88 902.92 739.08 908.92 740.03 914.84 C 736.80 914.75 733.58 914.74 730.36 914.90 C 730.52 906.32 732.05 897.71 730.93 889.15 C 730.35 884.24 725.96 880.28 721.00 880.32 C 714.62 879.57 706.36 882.04 705.16 889.29 C 704.06 897.73 704.67 906.37 705.57 914.82 C 702.41 914.76 699.26 914.74 696.11 914.83 C 697.04 902.33 697.05 889.75 696.13 877.26 C 699.07 877.30 702.01 877.31 704.96 877.26 C 704.87 879.25 704.77 881.24 704.70 883.25 Z" />
<path fill="#231f20" opacity="1.00" d=" M 852.40 880.55 C 859.73 876.79 868.25 875.13 876.37 876.93 C 881.04 878.05 885.51 881.39 886.42 886.35 C 887.20 894.11 886.13 901.99 886.93 909.75 C 887.20 912.93 890.40 912.41 892.77 912.61 C 892.65 913.02 892.43 913.84 892.31 914.24 C 888.99 914.63 885.52 915.93 882.27 914.51 C 880.39 913.98 879.44 912.11 878.23 910.76 C 871.79 915.48 863.43 917.06 855.71 915.10 C 852.82 914.04 849.71 912.51 848.39 909.56 C 846.20 905.61 848.34 900.31 852.21 898.32 C 860.23 893.86 869.99 895.80 878.30 892.34 C 879.64 888.50 878.74 883.34 874.87 881.35 C 867.64 877.39 858.32 879.64 852.53 885.16 C 852.46 883.61 852.42 882.08 852.40 880.55 M 859.01 899.98 C 855.12 902.32 855.69 908.48 859.33 910.78 C 865.43 914.60 873.54 912.28 878.58 907.67 C 878.72 903.51 878.66 899.35 878.66 895.20 C 872.12 896.71 864.85 896.31 859.01 899.98 Z" />
<path fill="#231f20" opacity="1.00" d=" M 1000.96 877.19 C 1007.49 875.44 1014.40 876.31 1020.82 878.16 C 1019.97 880.22 1019.12 882.30 1018.31 884.39 C 1016.00 882.03 1013.44 879.22 1009.85 879.29 C 1006.01 878.97 1001.01 879.42 999.23 883.45 C 997.51 886.45 999.79 890.15 1002.84 891.11 C 1009.95 893.87 1019.10 893.34 1024.00 900.17 L 1024.00 904.73 C 1023.13 907.32 1021.78 909.86 1019.46 911.44 C 1011.42 917.44 1000.32 916.69 991.30 913.54 C 992.09 911.33 992.86 909.10 993.64 906.89 C 996.26 909.50 999.14 912.52 1003.12 912.67 C 1006.96 912.89 1011.45 913.31 1014.54 910.51 C 1017.33 908.43 1017.55 903.46 1014.33 901.66 C 1008.68 898.54 1001.83 898.77 996.15 895.70 C 993.39 894.18 991.15 891.27 991.46 887.99 C 991.55 882.68 996.15 878.60 1000.96 877.19 Z" />
<path fill="#231f20" opacity="1.00" d=" M 488.38 877.25 C 491.52 877.31 494.67 877.31 497.82 877.32 C 496.94 889.81 497.18 902.35 497.78 914.85 C 494.65 914.75 491.52 914.75 488.40 914.85 C 489.61 902.38 489.79 889.72 488.38 877.25 Z" />
<path fill="#231f20" opacity="1.00" d=" M 967.11 877.27 C 970.22 877.31 973.33 877.31 976.46 877.28 C 975.08 889.74 975.17 902.39 976.48 914.86 C 973.34 914.77 970.21 914.77 967.09 914.86 C 967.82 902.35 967.82 889.78 967.11 877.27 Z" />
<path fill="#231f20" opacity="1.00" d=" M 318.07 945.97 C 325.43 943.70 333.39 943.63 340.92 945.06 C 349.53 946.73 358.00 952.75 360.18 961.60 C 361.60 968.80 360.98 977.11 355.74 982.72 C 350.95 988.62 343.35 990.81 336.16 992.00 L 325.81 992.00 C 319.18 990.68 312.20 988.69 307.49 983.52 C 301.69 977.82 300.37 968.86 302.33 961.23 C 304.27 953.74 310.88 948.22 318.07 945.97 M 325.30 947.02 C 319.96 948.11 314.76 951.16 312.14 956.09 C 309.14 961.08 309.01 967.14 309.62 972.78 C 310.44 979.41 314.92 985.52 321.30 987.79 C 329.28 990.70 339.08 990.28 346.03 985.03 C 351.21 981.04 353.07 974.26 353.25 968.00 C 353.03 961.99 351.40 955.44 346.57 951.46 C 340.75 946.56 332.55 945.67 325.30 947.02 Z" />
<path fill="#231f20" opacity="1.00" d=" M 374.91 946.93 C 381.88 942.97 390.82 943.34 397.92 946.84 C 397.15 948.90 396.39 950.97 395.64 953.05 C 393.24 949.93 390.41 946.21 386.00 946.46 C 380.20 945.82 373.24 951.45 376.17 957.60 C 380.78 966.11 393.07 963.78 398.68 971.25 C 402.01 975.89 400.60 982.78 396.57 986.57 C 393.38 989.89 388.76 991.07 384.41 992.00 L 378.48 992.00 C 374.89 991.30 371.50 989.91 368.26 988.26 C 368.79 986.18 369.29 984.09 369.90 982.05 C 371.89 983.72 373.45 985.89 375.68 987.29 C 380.44 990.11 387.04 990.06 391.33 986.37 C 394.70 983.52 395.76 977.77 392.46 974.48 C 386.75 969.08 377.60 969.67 372.15 963.92 C 367.59 958.93 369.06 950.25 374.91 946.93 Z" />
<path fill="#231f20" opacity="1.00" d=" M 475.50 943.41 C 480.75 951.51 484.39 960.54 488.93 969.05 C 492.70 976.40 496.35 983.83 500.50 990.98 C 497.76 991.00 495.02 991.18 492.30 990.89 C 489.26 985.14 486.92 979.04 483.83 973.31 C 477.02 973.18 470.20 973.09 463.39 973.35 C 460.86 979.17 457.98 984.86 456.01 990.90 C 454.07 990.91 452.14 990.91 450.22 990.92 C 457.05 978.43 463.73 965.87 470.20 953.19 C 471.87 949.88 473.42 946.49 475.50 943.41 M 465.23 970.25 C 471.04 970.26 476.86 970.34 482.68 970.23 C 479.78 964.56 476.90 958.89 473.83 953.32 C 470.54 958.73 467.84 964.49 465.23 970.25 Z" />
<path fill="#231f20" opacity="1.00" d=" M 526.13 945.31 C 536.55 943.17 547.66 943.82 557.59 947.77 C 556.90 949.54 556.23 951.32 555.55 953.11 C 546.77 945.43 533.19 944.27 523.17 950.15 C 516.99 953.72 513.97 961.06 514.38 968.00 C 513.99 974.69 516.77 981.76 522.56 985.46 C 530.76 990.85 541.45 990.29 550.52 987.65 C 550.79 981.84 550.74 976.02 550.58 970.22 C 552.85 970.22 555.14 970.23 557.42 970.23 C 557.24 976.51 557.25 982.79 557.35 989.08 C 551.71 990.20 546.08 991.40 540.36 992.00 L 531.76 992.00 C 524.82 990.73 517.31 989.13 512.31 983.73 C 506.41 977.96 505.43 968.81 507.34 961.13 C 509.61 952.60 517.82 946.99 526.13 945.31 Z" />
<path fill="#231f20" opacity="1.00" d=" M 589.72 944.33 C 590.18 944.31 591.12 944.27 591.58 944.25 C 599.40 959.87 606.98 975.63 615.50 990.89 C 612.67 990.88 609.85 990.93 607.03 990.99 C 604.83 984.87 601.57 979.22 598.95 973.29 C 592.17 973.35 585.35 972.84 578.61 973.50 C 575.55 979.06 573.28 985.05 570.92 990.94 C 569.04 990.90 567.16 990.86 565.29 990.82 C 573.73 975.48 581.89 959.99 589.72 944.33 M 580.27 970.23 C 586.07 970.29 591.87 970.31 597.67 970.24 C 594.84 964.47 591.80 958.80 588.91 953.07 C 585.86 958.70 582.90 964.39 580.27 970.23 Z" />
<path fill="#231f20" opacity="1.00" d=" M 625.68 943.26 C 639.46 955.33 652.52 968.24 666.44 980.18 C 666.62 968.40 666.46 956.61 666.23 944.83 C 667.67 944.81 669.11 944.80 670.57 944.80 C 669.88 960.53 669.59 976.26 670.21 992.00 L 668.94 992.00 C 661.76 984.51 654.05 977.59 646.50 970.49 C 640.67 965.25 635.09 959.68 628.82 954.96 C 628.44 967.05 629.35 979.11 629.46 991.19 C 628.02 991.18 626.59 991.18 625.16 991.20 C 625.74 975.22 625.50 959.23 625.68 943.26 Z" />
<path fill="#231f20" opacity="1.00" d=" M 238.87 944.36 C 241.82 947.52 243.56 951.54 245.93 955.12 C 251.52 963.85 256.87 972.77 262.95 981.19 C 271.33 969.12 278.92 956.50 287.44 944.52 C 290.14 959.95 291.77 975.58 293.89 991.10 C 291.45 991.01 289.00 990.97 286.56 990.96 C 286.04 979.65 284.27 968.46 283.05 957.23 C 275.03 968.00 268.10 979.55 261.49 991.24 C 254.25 980.07 247.76 968.41 240.48 957.25 C 238.49 968.39 237.45 979.69 236.61 990.97 C 234.83 990.94 233.05 990.93 231.27 990.94 C 234.13 975.47 236.79 959.96 238.87 944.36 Z" />
<path fill="#231f20" opacity="1.00" d=" M 406.29 944.52 C 419.74 945.22 433.18 945.24 446.63 944.49 C 446.60 945.50 446.56 947.53 446.54 948.55 C 440.94 948.43 435.35 948.23 429.75 948.30 C 429.47 962.56 429.28 976.85 430.31 991.08 C 427.72 991.03 425.13 991.00 422.54 990.99 C 423.64 976.79 423.38 962.54 423.21 948.32 C 417.57 948.23 411.94 948.45 406.30 948.61 C 406.30 947.59 406.30 945.54 406.29 944.52 Z" />
<path fill="#231f20" opacity="1.00" d=" M 685.93 944.53 C 695.08 945.15 704.22 945.25 713.37 944.56 C 713.59 945.83 713.79 947.12 713.95 948.42 C 707.08 948.35 700.25 947.39 693.37 947.74 C 693.25 953.65 693.11 959.57 693.24 965.49 C 699.42 965.37 705.59 965.26 711.77 965.16 C 711.79 966.06 711.82 967.85 711.84 968.75 C 705.62 968.40 699.39 968.30 693.17 968.13 C 693.22 974.87 693.28 981.60 693.42 988.34 C 700.40 988.48 707.37 988.20 714.33 987.59 C 714.33 988.49 714.33 990.28 714.32 991.18 C 704.86 990.97 695.39 991.38 685.93 991.06 C 686.90 975.57 686.89 960.02 685.93 944.53 Z" />
<path fill="#231f20" opacity="1.00" d=" M 729.98 944.39 C 731.73 946.22 733.06 948.38 734.34 950.56 C 740.14 960.08 746.22 969.43 752.26 978.80 C 752.84 979.63 753.35 980.79 754.59 980.70 C 762.60 968.62 770.29 956.29 778.66 944.45 C 781.38 959.87 782.61 975.54 785.32 990.98 C 782.75 990.91 780.19 990.91 777.63 990.93 C 777.10 979.60 775.60 968.33 774.17 957.09 C 766.34 968.03 759.23 979.48 752.67 991.24 C 745.37 980.11 739.01 968.39 731.67 957.29 C 729.85 968.45 728.48 979.70 727.72 990.98 C 725.92 990.96 724.12 990.94 722.34 990.94 C 725.43 975.52 727.90 959.98 729.98 944.39 Z" />
</g>
</svg>
